<mxfile host="app.diagrams.net" modified="2023-12-28T08:18:01.156Z" agent="Mozilla/5.0 (Windows NT 10.0; Win64; x64) AppleWebKit/537.36 (KHTML, like Gecko) Chrome/118.0.0.0 YaBrowser/23.11.0.0 Safari/537.36" etag="qjDF1nF-FGnnl_iB57Zq" version="22.1.15" type="google">
  <diagram name="Страница — 1" id="kPCXkCkmHh4VnlPs58sX">
    <mxGraphModel grid="1" page="1" gridSize="10" guides="1" tooltips="1" connect="1" arrows="1" fold="1" pageScale="1" pageWidth="827" pageHeight="1169" math="0" shadow="0">
      <root>
        <mxCell id="0" />
        <mxCell id="1" parent="0" />
        <mxCell id="Z-na06SvYNW-kUT_Gr9J-2" value="" style="rounded=0;whiteSpace=wrap;html=1;" vertex="1" parent="1">
          <mxGeometry x="170" y="90" width="260" height="460" as="geometry" />
        </mxCell>
        <mxCell id="Z-na06SvYNW-kUT_Gr9J-3" value="Студент" style="shape=umlActor;verticalLabelPosition=bottom;verticalAlign=top;html=1;outlineConnect=0;" vertex="1" parent="1">
          <mxGeometry x="20" y="290" width="30" height="60" as="geometry" />
        </mxCell>
        <mxCell id="Z-na06SvYNW-kUT_Gr9J-5" value="Преподаватель" style="shape=umlActor;verticalLabelPosition=bottom;verticalAlign=top;html=1;outlineConnect=0;" vertex="1" parent="1">
          <mxGeometry x="530" y="130" width="30" height="60" as="geometry" />
        </mxCell>
        <mxCell id="Z-na06SvYNW-kUT_Gr9J-6" value="Осуществлять обучение" style="ellipse;whiteSpace=wrap;html=1;" vertex="1" parent="1">
          <mxGeometry x="210" y="130" width="180" height="70" as="geometry" />
        </mxCell>
        <mxCell id="Z-na06SvYNW-kUT_Gr9J-7" value="" style="endArrow=none;html=1;rounded=0;exitX=1;exitY=0.5;exitDx=0;exitDy=0;entryX=0.5;entryY=0.5;entryDx=0;entryDy=0;entryPerimeter=0;" edge="1" parent="1" source="Z-na06SvYNW-kUT_Gr9J-6" target="Z-na06SvYNW-kUT_Gr9J-5">
          <mxGeometry width="50" height="50" relative="1" as="geometry">
            <mxPoint x="390" y="230" as="sourcePoint" />
            <mxPoint x="440" y="180" as="targetPoint" />
          </mxGeometry>
        </mxCell>
        <mxCell id="Z-na06SvYNW-kUT_Gr9J-8" value="Research Assiciate" style="shape=umlActor;verticalLabelPosition=bottom;verticalAlign=top;html=1;outlineConnect=0;" vertex="1" parent="1">
          <mxGeometry x="540" y="260" width="30" height="60" as="geometry" />
        </mxCell>
        <mxCell id="Z-na06SvYNW-kUT_Gr9J-10" value="Осуществлять работу над проектом" style="ellipse;whiteSpace=wrap;html=1;" vertex="1" parent="1">
          <mxGeometry x="200" y="230" width="190" height="70" as="geometry" />
        </mxCell>
        <mxCell id="Z-na06SvYNW-kUT_Gr9J-11" value="" style="endArrow=none;html=1;rounded=0;exitX=1;exitY=0.5;exitDx=0;exitDy=0;entryX=0.5;entryY=0.5;entryDx=0;entryDy=0;entryPerimeter=0;" edge="1" parent="1" source="Z-na06SvYNW-kUT_Gr9J-10" target="Z-na06SvYNW-kUT_Gr9J-8">
          <mxGeometry width="50" height="50" relative="1" as="geometry">
            <mxPoint x="370" y="290" as="sourcePoint" />
            <mxPoint x="420" y="240" as="targetPoint" />
          </mxGeometry>
        </mxCell>
        <mxCell id="Z-na06SvYNW-kUT_Gr9J-12" value="Декан" style="shape=umlActor;verticalLabelPosition=bottom;verticalAlign=top;html=1;outlineConnect=0;" vertex="1" parent="1">
          <mxGeometry x="540" y="370" width="30" height="60" as="geometry" />
        </mxCell>
        <mxCell id="Z-na06SvYNW-kUT_Gr9J-13" value="Управлять аспектами образовательного процесса" style="ellipse;whiteSpace=wrap;html=1;" vertex="1" parent="1">
          <mxGeometry x="200" y="340" width="190" height="70" as="geometry" />
        </mxCell>
        <mxCell id="Z-na06SvYNW-kUT_Gr9J-14" value="" style="endArrow=none;html=1;rounded=0;exitX=1;exitY=0.5;exitDx=0;exitDy=0;entryX=0.5;entryY=0.5;entryDx=0;entryDy=0;entryPerimeter=0;" edge="1" parent="1" source="Z-na06SvYNW-kUT_Gr9J-13" target="Z-na06SvYNW-kUT_Gr9J-12">
          <mxGeometry width="50" height="50" relative="1" as="geometry">
            <mxPoint x="360" y="420" as="sourcePoint" />
            <mxPoint x="585" y="390" as="targetPoint" />
          </mxGeometry>
        </mxCell>
        <mxCell id="Z-na06SvYNW-kUT_Gr9J-15" value="Административный работник" style="shape=umlActor;verticalLabelPosition=bottom;verticalAlign=top;html=1;outlineConnect=0;" vertex="1" parent="1">
          <mxGeometry x="531" y="490" width="30" height="60" as="geometry" />
        </mxCell>
        <mxCell id="Z-na06SvYNW-kUT_Gr9J-16" value="Выполнять административные функции" style="ellipse;whiteSpace=wrap;html=1;" vertex="1" parent="1">
          <mxGeometry x="200" y="430" width="190" height="70" as="geometry" />
        </mxCell>
        <mxCell id="Z-na06SvYNW-kUT_Gr9J-17" value="" style="endArrow=none;html=1;rounded=0;exitX=1;exitY=0.5;exitDx=0;exitDy=0;entryX=0.5;entryY=0.5;entryDx=0;entryDy=0;entryPerimeter=0;" edge="1" parent="1" source="Z-na06SvYNW-kUT_Gr9J-16" target="Z-na06SvYNW-kUT_Gr9J-15">
          <mxGeometry width="50" height="50" relative="1" as="geometry">
            <mxPoint x="360" y="490" as="sourcePoint" />
            <mxPoint x="555" y="470" as="targetPoint" />
          </mxGeometry>
        </mxCell>
        <mxCell id="Z-na06SvYNW-kUT_Gr9J-18" value="" style="endArrow=none;html=1;rounded=0;exitX=0.5;exitY=0.5;exitDx=0;exitDy=0;exitPerimeter=0;entryX=0;entryY=0.5;entryDx=0;entryDy=0;" edge="1" parent="1" source="Z-na06SvYNW-kUT_Gr9J-3" target="Z-na06SvYNW-kUT_Gr9J-2">
          <mxGeometry width="50" height="50" relative="1" as="geometry">
            <mxPoint x="320" y="360" as="sourcePoint" />
            <mxPoint x="370" y="310" as="targetPoint" />
          </mxGeometry>
        </mxCell>
      </root>
    </mxGraphModel>
  </diagram>
</mxfile>
